<svg width="204" height="204" viewBox="0 0 204 204" fill="none" xmlns="http://www.w3.org/2000/svg">
<g clip-path="url(#clip0_393_1215)">
<rect width="204" height="204" fill="#DF4949"/>
<path d="M-16 95.9416C2.11026 95.9416 20.2258 95.8058 38.3353 95.9416C53.1847 96.053 69.3794 95.055 83.9037 98.8639C90.8236 100.679 103.76 108.968 96.1066 117.714C92.8245 121.465 85.8614 122.146 81.3025 121.568C73.3109 120.554 70.4759 114.787 71.8613 107.31C73.1457 100.378 76.6041 93.6383 79.8895 87.4959C85.9535 76.159 92.5235 65.1341 98.4509 53.713C105.167 40.7728 114.302 27.4623 118.425 13.3469C118.685 12.4568 119.56 3.07061 118.554 6.9243C113.946 24.5621 111.277 43.0618 108.406 61.0348C106.068 75.6676 103.886 90.4183 102.048 105.126C101.116 112.576 105.4 90.4765 107.571 83.2891C113.614 63.2845 120.68 43.652 130.757 25.293C132.17 22.7183 133.747 20.2163 134.931 17.5216C135.713 15.7433 135.82 15.2781 135.895 18.1639C136.067 24.7971 135.515 31.4664 135.06 38.0739C133.62 58.991 132.007 79.9073 130.146 100.791C128.576 118.419 126.825 136.027 124.334 153.552C122.928 163.44 121.679 173.691 118.907 183.321C117.666 187.63 115.805 191.982 112.452 195.107C110.925 196.53 106.634 198.934 104.36 197.612C100.847 195.568 101.245 186.947 101.245 184.381C101.245 160.499 113.66 140.619 128.509 122.692C150.389 96.276 178.071 72.6058 208.855 57.2133" stroke="#8B8282" stroke-width="4" stroke-linecap="round"/>
<path d="M-21 95.9416C-2.88974 95.9416 15.2258 95.8058 33.3353 95.9416C48.1847 96.053 64.3794 95.055 78.9037 98.8639C85.8236 100.679 98.7597 108.968 91.1066 117.714C87.8245 121.465 80.8614 122.146 76.3025 121.568C68.3109 120.554 65.4759 114.787 66.8613 107.31C68.1457 100.378 71.6041 93.6383 74.8895 87.4959C80.9535 76.159 87.5235 65.1341 93.4509 53.713C100.167 40.7728 109.302 27.4623 113.425 13.3469C113.685 12.4568 114.56 3.07061 113.554 6.9243C108.946 24.5621 106.277 43.0618 103.406 61.0348C101.068 75.6676 98.886 90.4183 97.0475 105.126C96.1162 112.576 100.4 90.4765 102.571 83.2891C108.614 63.2845 115.68 43.652 125.757 25.293C127.17 22.7183 128.747 20.2163 129.931 17.5216C130.713 15.7433 130.82 15.2781 130.895 18.1639C131.067 24.7971 130.515 31.4664 130.06 38.0739C128.62 58.991 127.007 79.9073 125.146 100.791C123.576 118.419 121.825 136.027 119.334 153.552C117.928 163.44 116.679 173.691 113.907 183.321C112.666 187.63 110.805 191.982 107.452 195.107C105.925 196.53 101.634 198.934 99.3597 197.612C95.8468 195.568 96.2447 186.947 96.2447 184.381C96.2447 160.499 108.66 140.619 123.509 122.692C145.389 96.276 173.071 72.6058 203.855 57.2133" stroke="black" stroke-width="4" stroke-linecap="round"/>
<path d="M-18 95.9416C0.110258 95.9416 18.2258 95.8058 36.3353 95.9416C51.1847 96.053 67.3794 95.055 81.9037 98.8639C88.8236 100.679 101.76 108.968 94.1066 117.714C90.8245 121.465 83.8614 122.146 79.3025 121.568C71.3109 120.554 68.4759 114.787 69.8613 107.31C71.1457 100.378 74.6041 93.6383 77.8895 87.4959C83.9535 76.159 90.5235 65.1341 96.4509 53.713C103.167 40.7728 112.302 27.4623 116.425 13.3469C116.685 12.4568 117.56 3.07061 116.554 6.9243C111.946 24.5621 109.277 43.0618 106.406 61.0348C104.068 75.6676 101.886 90.4183 100.048 105.126C99.1162 112.576 103.4 90.4765 105.571 83.2891C111.614 63.2845 118.68 43.652 128.757 25.293C130.17 22.7183 131.747 20.2163 132.931 17.5216C133.713 15.7433 133.82 15.2781 133.895 18.1639C134.067 24.7971 133.515 31.4664 133.06 38.0739C131.62 58.991 130.007 79.9073 128.146 100.791C126.576 118.419 124.825 136.027 122.334 153.552C120.928 163.44 119.679 173.691 116.907 183.321C115.666 187.63 113.805 191.982 110.452 195.107C108.925 196.53 104.634 198.934 102.36 197.612C98.8468 195.568 99.2447 186.947 99.2447 184.381C99.2447 160.499 111.66 140.619 126.509 122.692C148.389 96.276 176.071 72.6058 206.855 57.2133" stroke="black" stroke-width="4" stroke-linecap="round"/>
</g>
<defs>
<clipPath id="clip0_393_1215">
<rect width="204" height="204" rx="40" fill="white"/>
</clipPath>
</defs>
</svg>
